<?xml version="1.0" standalone="no"?>
<!DOCTYPE svg PUBLIC "-//W3C//DTD SVG 20010904//EN"
 "http://www.w3.org/TR/2001/REC-SVG-20010904/DTD/svg10.dtd">
<svg version="1.0" xmlns="http://www.w3.org/2000/svg"
 width="800.000000pt" height="800.000000pt" viewBox="0 0 800.000000 800.000000"
 preserveAspectRatio="xMidYMid meet">
<metadata>
Created by potrace 1.14, written by Peter Selinger 2001-2017
</metadata>
<g transform="translate(0.000000,800.000000) scale(0.100000,-0.100000)"
fill="#000000" stroke="none">
<path d="M3735 7039 c-33 -3 -87 -10 -120 -13 -33 -4 -77 -12 -97 -17 -20 -5
-56 -12 -79 -15 -53 -8 -264 -67 -339 -95 -310 -118 -542 -249 -790 -448 -83
-66 -232 -211 -304 -295 -28 -33 -59 -69 -70 -81 -37 -41 -170 -233 -223 -323
-157 -266 -292 -636 -328 -902 -3 -25 -8 -52 -10 -60 -2 -8 -7 -51 -11 -95 -3
-44 -7 -81 -8 -82 0 -1 -30 11 -66 26 -130 56 -236 69 -315 40 -115 -43 -168
-151 -169 -343 -1 -304 103 -670 248 -875 134 -189 337 -296 552 -291 51 1 62
-2 67 -17 18 -53 183 -300 277 -413 148 -177 271 -293 489 -460 61 -47 246
-160 330 -202 l83 -42 -33 -14 c-97 -41 -221 -105 -269 -139 -92 -65 -261
-241 -329 -342 -162 -242 -279 -550 -307 -806 -3 -27 -8 -57 -10 -65 -8 -24
-16 -222 -17 -455 l-2 -215 2113 0 c2004 0 2112 1 2113 18 3 65 -1 504 -6 555
-16 179 -35 289 -70 411 -8 28 -15 53 -14 56 0 5 -41 120 -60 165 -23 57 -100
206 -141 275 -113 185 -263 340 -426 438 -78 46 -228 112 -258 112 -28 0 -14
11 79 60 77 41 195 109 205 120 3 3 34 25 70 50 159 109 377 304 479 430 20
24 43 51 51 60 18 19 49 60 70 91 8 12 24 34 36 48 30 38 154 238 154 249 0
25 35 34 137 37 60 1 119 5 132 8 204 52 365 192 477 415 37 73 59 135 114
317 5 17 12 50 15 75 3 25 8 53 11 62 26 87 37 282 23 387 -17 123 -93 227
-179 247 -95 22 -214 -2 -348 -70 -58 -30 -64 -31 -61 -13 2 10 -6 108 -16
187 -24 196 -104 482 -189 672 -14 31 -27 69 -29 83 -2 15 -14 41 -28 58 -14
18 -49 75 -78 127 -162 288 -432 594 -701 794 -63 46 -181 124 -249 164 -69
40 -299 156 -326 164 -11 4 -84 29 -162 57 -79 27 -143 47 -143 44 0 -3 -6 -1
-12 4 -7 6 -31 14 -53 18 -22 5 -44 9 -50 11 -12 3 -226 41 -280 49 -58 10
-479 13 -550 4z"/>
</g>
</svg>
